<?xml version="1.0" encoding="UTF-8"?><svg id="Layer_1" xmlns="http://www.w3.org/2000/svg" viewBox="0 0 623.1 320.18"><defs><style>.cls-1{fill:#f89a4a;}.cls-2{fill:#f04c23;}.cls-3,.cls-4{fill:#fff;}.cls-5{fill:#fef081;}.cls-6{fill:#9fc4e8;}.cls-7,.cls-8{fill:#231f20;}.cls-9{fill:#19224e;}.cls-10{fill:#3b5caa;}.cls-11{letter-spacing:-.07em;}.cls-4,.cls-12{font-family:Helvetica-BoldOblique, Helvetica;}.cls-4,.cls-12,.cls-8{font-size:8.24px;}.cls-12{fill:#383838;}.cls-13{opacity:.32;}.cls-8{font-family:Helvetica-LightOblique, Helvetica;}.cls-14{fill:none;stroke:#231f20;stroke-dasharray:0 0 10 10;stroke-miterlimit:10;stroke-width:3px;}</style></defs><g class="cls-13"><g><path class="cls-14" d="M300.42,264.71c-3.69,2.65-12.51,8.23-23.67,8.46-10.97,.23-18.77-4.82-24.02-8.21-2.82-1.83-5.06-3.67-6.76-5.23"/><polygon class="cls-7" points="253.8 258.34 253.84 259.84 246.45 260.06 247.21 267.42 245.72 267.57 244.79 258.61 253.8 258.34"/></g></g><g class="cls-13"><g><path class="cls-14" d="M243.14,48.36c3.39-3.04,11.61-9.48,23.15-10.07,11.35-.58,20.29,4.79,26.3,8.4,3.33,2,6.02,4.04,8.07,5.75"/><polygon class="cls-7" points="292.91 54.14 292.81 52.64 300.19 52.12 299.13 44.8 300.62 44.59 301.9 53.51 292.91 54.14"/></g></g><g class="cls-13"><g><path class="cls-14" d="M386.99,131.32c3.13,3.3,9.8,11.34,10.7,22.87,.89,11.33-4.23,20.41-7.68,26.52-1.91,3.38-3.87,6.13-5.53,8.22"/><polygon class="cls-7" points="382.58 181.23 384.07 181.09 384.79 188.45 392.08 187.19 392.33 188.67 383.46 190.2 382.58 181.23"/></g></g><circle class="cls-10" cx="187.83" cy="77.62" r="35.65"/><circle class="cls-1" cx="354.97" cy="79.66" r="35.65"/><circle class="cls-5" cx="354.97" cy="243.76" r="35.65"/><circle class="cls-6" cx="191.67" cy="241.74" r="35.65"/><g><path class="cls-3" d="M168.6,74.46l1.26-5.93h1.23l-1.26,5.93h-1.23Z"/><path class="cls-3" d="M174.13,70.15c.18,.12,.31,.28,.4,.49l.44-2.09h1.16l-1.25,5.92h-1.12l.13-.61c-.22,.26-.45,.45-.68,.57s-.51,.18-.82,.18c-.51,0-.9-.21-1.16-.62-.26-.42-.32-.95-.19-1.6,.16-.75,.46-1.34,.89-1.77,.44-.43,.94-.64,1.52-.64,.27,0,.49,.06,.67,.17Zm-.63,.83c-.34,0-.61,.13-.82,.38-.21,.25-.36,.57-.44,.94-.09,.4-.08,.73,.03,.97,.11,.24,.32,.36,.65,.36s.6-.12,.82-.36c.22-.24,.37-.55,.45-.94,.11-.54,.06-.92-.16-1.15-.14-.14-.32-.21-.54-.21Z"/><path class="cls-3" d="M178.5,73.48c.09-.07,.19-.17,.28-.3h1.17c-.09,.26-.28,.52-.58,.79-.47,.43-1.04,.64-1.71,.64-.56,0-1.01-.18-1.36-.54-.35-.36-.44-.94-.27-1.75,.16-.76,.48-1.34,.95-1.75s1.01-.61,1.63-.61c.36,0,.68,.07,.94,.21,.26,.14,.46,.35,.58,.65,.12,.26,.17,.56,.14,.91-.01,.2-.06,.49-.14,.87h-3c-.08,.44,0,.75,.22,.93,.13,.11,.31,.17,.54,.17,.24,0,.44-.07,.62-.2Zm-.1-2.57c-.27,0-.49,.08-.67,.25-.18,.17-.32,.39-.42,.68h1.78c.05-.3,0-.53-.13-.69-.13-.16-.32-.24-.57-.24Z"/><path class="cls-3" d="M182.79,71.8c.22-.03,.38-.06,.48-.1,.18-.07,.28-.18,.31-.33,.04-.18,0-.3-.11-.37-.11-.07-.29-.1-.53-.1-.27,0-.48,.07-.62,.2-.1,.1-.18,.23-.25,.4h-1.11c.11-.38,.28-.7,.52-.95,.39-.39,.95-.58,1.69-.58,.48,0,.89,.1,1.22,.29,.33,.19,.44,.55,.33,1.08l-.43,2.01c-.03,.14-.06,.31-.1,.51-.02,.15-.02,.25,0,.31s.07,.1,.14,.13l-.03,.17h-1.25c-.02-.09-.02-.17-.02-.25,0-.08,0-.17,.02-.27-.2,.17-.41,.32-.64,.44-.28,.14-.57,.21-.88,.21-.4,0-.7-.11-.91-.34-.21-.23-.27-.55-.18-.96,.12-.54,.41-.93,.87-1.17,.25-.13,.61-.22,1.07-.28l.4-.05Zm.02,.72l-.26,.05c-.25,.04-.44,.09-.56,.16-.2,.1-.32,.27-.37,.49-.04,.2-.02,.34,.07,.42,.09,.09,.21,.13,.37,.13,.25,0,.49-.07,.73-.22,.24-.14,.4-.41,.5-.79l.09-.43c-.08,.04-.16,.08-.24,.11s-.19,.05-.32,.08Z"/><path class="cls-3" d="M171.91,82.16l.21-.99h2.47l-.68,3.18h-.82l.03-.74c-.3,.28-.56,.48-.77,.6-.37,.2-.79,.3-1.27,.3-.79,0-1.37-.27-1.76-.82-.41-.55-.51-1.29-.31-2.24,.2-.96,.63-1.73,1.28-2.31,.65-.58,1.41-.87,2.28-.87,.75,0,1.32,.19,1.69,.57,.38,.38,.54,.86,.48,1.43h-1.22c0-.41-.18-.69-.51-.85-.19-.09-.4-.13-.65-.13-.48,0-.91,.18-1.29,.54-.38,.36-.65,.9-.81,1.63-.15,.73-.1,1.25,.17,1.55s.61,.46,1.04,.46,.78-.12,1.1-.36c.32-.24,.55-.55,.69-.94h-1.37Z"/><path class="cls-3" d="M177.59,83.37c.09-.07,.19-.17,.28-.3h1.17c-.09,.26-.28,.52-.58,.79-.47,.43-1.04,.64-1.71,.64-.56,0-1.01-.18-1.36-.54-.35-.36-.44-.94-.27-1.75,.16-.76,.48-1.34,.95-1.75s1.01-.61,1.63-.61c.36,0,.68,.07,.94,.21,.26,.14,.46,.35,.58,.65,.12,.26,.17,.56,.14,.91-.01,.2-.06,.49-.14,.87h-3c-.08,.44,0,.75,.22,.93,.13,.11,.31,.17,.54,.17,.24,0,.44-.07,.62-.2Zm-.1-2.57c-.27,0-.49,.08-.67,.25-.18,.17-.32,.39-.42,.68h1.78c.05-.3,0-.53-.13-.69-.13-.16-.32-.24-.57-.24Z"/><path class="cls-3" d="M182.95,81.68c.05-.23,.06-.41,.02-.53-.06-.23-.25-.34-.57-.34-.39,0-.69,.17-.91,.5-.11,.17-.2,.4-.25,.67l-.5,2.37h-1.14l.93-4.38h1.11l-.14,.64c.2-.23,.37-.39,.52-.49,.27-.18,.59-.27,.95-.27,.45,0,.8,.12,1.04,.36s.3,.63,.18,1.18l-.63,2.95h-1.17l.56-2.67Z"/><path class="cls-3" d="M187.2,83.37c.09-.07,.19-.17,.28-.3h1.17c-.09,.26-.28,.52-.58,.79-.47,.43-1.04,.64-1.71,.64-.56,0-1.01-.18-1.36-.54-.35-.36-.44-.94-.27-1.75,.16-.76,.48-1.34,.95-1.75s1.01-.61,1.63-.61c.36,0,.68,.07,.94,.21,.26,.14,.46,.35,.58,.65,.12,.26,.17,.56,.14,.91-.01,.2-.06,.49-.14,.87h-3c-.08,.44,0,.75,.22,.93,.13,.11,.31,.17,.54,.17,.24,0,.44-.07,.62-.2Zm-.1-2.57c-.27,0-.49,.08-.67,.25-.18,.17-.32,.39-.42,.68h1.78c.05-.3,0-.53-.13-.69-.13-.16-.32-.24-.57-.24Z"/><path class="cls-3" d="M192.6,79.86s.04,0,.09,0l-.25,1.17c-.07,0-.13-.01-.19-.02-.06,0-.1,0-.14,0-.46,0-.8,.15-1.03,.45-.12,.17-.22,.43-.3,.78l-.44,2.1h-1.15l.93-4.38h1.09l-.16,.76c.24-.29,.43-.49,.59-.6,.25-.18,.55-.27,.9-.27h.06Z"/><path class="cls-3" d="M194.7,81.68c.22-.03,.38-.06,.48-.1,.18-.07,.28-.18,.31-.33,.04-.18,0-.3-.11-.37-.11-.07-.29-.1-.53-.1-.27,0-.48,.07-.62,.2-.1,.1-.18,.23-.25,.4h-1.11c.11-.38,.28-.7,.52-.95,.39-.39,.95-.58,1.69-.58,.48,0,.89,.1,1.22,.29,.33,.19,.44,.55,.33,1.08l-.43,2.01c-.03,.14-.06,.31-.1,.51-.02,.15-.02,.25,0,.31s.07,.1,.14,.13l-.03,.17h-1.25c-.02-.09-.02-.17-.02-.25,0-.08,0-.17,.02-.27-.2,.17-.41,.32-.64,.44-.28,.14-.57,.21-.88,.21-.4,0-.7-.11-.91-.34-.21-.23-.27-.55-.18-.96,.12-.54,.41-.93,.87-1.17,.25-.13,.61-.22,1.07-.28l.4-.05Zm.02,.72l-.26,.05c-.25,.04-.44,.09-.56,.16-.2,.1-.32,.27-.37,.49-.04,.2-.02,.34,.07,.42,.09,.09,.21,.13,.37,.13,.25,0,.49-.07,.73-.22,.24-.14,.4-.41,.5-.79l.09-.43c-.08,.04-.16,.08-.24,.11s-.19,.05-.32,.08Z"/><path class="cls-3" d="M198.54,83.14c-.04,.18-.04,.29,0,.34s.17,.07,.4,.07c.04,0,.07,0,.11,0s.08,0,.12,0l-.19,.86-.55,.02c-.54,.02-.89-.08-1.05-.28-.1-.13-.12-.33-.06-.61l.58-2.7h-.61l.17-.82h.61l.26-1.22h1.13l-.26,1.22h.71l-.17,.82h-.71l-.5,2.32Z"/><path class="cls-3" d="M200.68,79.97h1.16l-.93,4.38h-1.16l.93-4.38Zm.34-1.58h1.16l-.23,1.06h-1.16l.23-1.06Z"/><path class="cls-3" d="M206.5,80.52c.27,.46,.34,1.01,.21,1.65-.14,.64-.44,1.19-.91,1.65s-1.08,.69-1.83,.69-1.27-.23-1.54-.69c-.27-.46-.34-1.01-.2-1.65,.13-.63,.44-1.18,.91-1.65,.47-.46,1.08-.7,1.83-.7s1.27,.23,1.54,.7Zm-1.75,.27c-.34,0-.62,.12-.85,.36-.23,.24-.39,.58-.49,1.02s-.08,.78,.05,1.02c.13,.24,.36,.36,.7,.36s.62-.12,.85-.36c.23-.24,.39-.58,.49-1.02s.08-.78-.05-1.02c-.13-.24-.36-.36-.7-.36Z"/><path class="cls-3" d="M210.42,81.68c.05-.23,.06-.41,.02-.53-.06-.23-.25-.34-.57-.34-.39,0-.69,.17-.91,.5-.11,.17-.2,.4-.25,.67l-.5,2.37h-1.14l.93-4.38h1.11l-.14,.64c.2-.23,.37-.39,.52-.49,.27-.18,.59-.27,.95-.27,.45,0,.8,.12,1.04,.36s.3,.63,.18,1.18l-.63,2.95h-1.17l.56-2.67Z"/></g><g><path class="cls-3" d="M339.54,66.12c.14,.29,.22,.61,.22,.96,0,.34-.03,.67-.09,.98-.17,.79-.47,1.46-.9,2-.58,.74-1.33,1.11-2.22,1.11h-2.55l1.26-5.93h2.55c.37,0,.66,.05,.89,.13,.39,.14,.67,.39,.85,.75Zm-1.16,2.02c.13-.6,.13-1.07,.01-1.39-.12-.32-.46-.49-1.03-.49h-1.14l-.82,3.87h1.14c.58,0,1.05-.29,1.41-.86,.19-.32,.33-.69,.43-1.13Z"/><path class="cls-3" d="M342.43,70.19c.09-.07,.19-.17,.28-.3h1.17c-.09,.26-.28,.52-.58,.79-.47,.43-1.04,.64-1.71,.64-.56,0-1.01-.18-1.36-.54-.35-.36-.44-.94-.27-1.75,.16-.76,.48-1.34,.95-1.75s1.01-.61,1.63-.61c.36,0,.68,.07,.94,.21,.26,.14,.46,.35,.58,.65,.12,.26,.17,.56,.14,.91-.01,.2-.06,.49-.14,.87h-3c-.08,.44,0,.75,.22,.93,.13,.11,.31,.17,.54,.17,.24,0,.44-.07,.62-.2Zm-.1-2.57c-.27,0-.49,.08-.67,.25-.18,.17-.32,.39-.42,.68h1.78c.05-.3,0-.53-.13-.69-.13-.16-.32-.24-.57-.24Z"/><path class="cls-3" d="M346.12,67.93c-.03,.13,0,.23,.11,.29,.1,.06,.47,.17,1.13,.32,.43,.11,.74,.27,.92,.49,.18,.22,.24,.5,.17,.83-.09,.43-.33,.79-.71,1.06-.38,.28-.91,.41-1.58,.41s-1.17-.15-1.43-.44c-.27-.29-.35-.66-.26-1.11h1.16c-.02,.2,0,.35,.07,.43,.11,.15,.35,.23,.74,.23,.23,0,.41-.03,.56-.1s.24-.17,.27-.3c.03-.13,0-.23-.1-.29-.09-.07-.47-.18-1.12-.35-.47-.12-.79-.28-.95-.46-.17-.18-.21-.45-.14-.79,.09-.41,.32-.75,.7-1.04,.38-.29,.86-.44,1.43-.44s.97,.11,1.27,.33c.3,.22,.42,.6,.35,1.13h-1.15c.01-.15,0-.26-.05-.35-.09-.16-.29-.23-.6-.23-.25,0-.43,.04-.56,.12-.12,.08-.19,.17-.22,.27Z"/><path class="cls-3" d="M349.96,66.79h1.16l-.93,4.38h-1.16l.93-4.38Zm.34-1.58h1.16l-.23,1.06h-1.16l.23-1.06Z"/><path class="cls-3" d="M352.71,72.97c-.56,0-.99-.11-1.3-.33-.31-.22-.43-.55-.38-.99h1.25c0,.13,.04,.23,.1,.29,.1,.1,.3,.16,.59,.16,.41,0,.72-.14,.92-.42,.13-.18,.24-.47,.33-.89l.06-.28c-.15,.19-.3,.33-.45,.42-.27,.17-.58,.26-.95,.26-.56,0-.97-.2-1.22-.59-.25-.4-.31-.93-.16-1.61,.14-.65,.42-1.2,.83-1.64,.42-.44,.93-.67,1.52-.67,.22,0,.4,.03,.55,.1,.25,.12,.44,.33,.54,.64l.13-.63h1.11l-.88,4.16c-.12,.57-.3,.99-.55,1.28-.43,.49-1.11,.74-2.04,.74Zm-.04-3.97c-.05,.25-.06,.48-.01,.68,.08,.37,.31,.56,.72,.56,.27,0,.52-.1,.74-.3,.23-.2,.39-.53,.48-.97,.09-.42,.07-.73-.06-.95-.13-.22-.34-.33-.63-.33-.4,0-.72,.19-.95,.57-.12,.2-.22,.45-.28,.74Z"/><path class="cls-3" d="M359.7,68.51c.05-.23,.06-.41,.02-.53-.06-.23-.25-.34-.57-.34-.39,0-.69,.17-.91,.5-.11,.17-.2,.4-.25,.67l-.5,2.37h-1.14l.93-4.38h1.11l-.14,.64c.2-.23,.37-.39,.52-.49,.27-.18,.59-.27,.95-.27,.45,0,.8,.12,1.04,.36s.3,.63,.18,1.18l-.63,2.95h-1.17l.56-2.67Z"/><path class="cls-3" d="M365.94,68.51c.22-.03,.38-.06,.48-.1,.18-.07,.28-.18,.31-.33,.04-.18,0-.3-.11-.37-.11-.07-.29-.1-.53-.1-.27,0-.48,.07-.62,.2-.1,.1-.18,.23-.25,.4h-1.11c.11-.38,.28-.7,.52-.95,.39-.39,.95-.58,1.69-.58,.48,0,.89,.1,1.22,.29,.33,.19,.44,.55,.33,1.08l-.43,2.01c-.03,.14-.06,.31-.1,.51-.02,.15-.02,.25,0,.31s.07,.1,.14,.13l-.03,.17h-1.25c-.02-.09-.02-.17-.02-.25,0-.08,0-.17,.02-.27-.2,.17-.41,.32-.64,.44-.28,.14-.57,.21-.88,.21-.4,0-.7-.11-.91-.34-.21-.23-.27-.55-.18-.96,.12-.54,.41-.93,.87-1.17,.25-.13,.61-.22,1.07-.28l.4-.05Zm.02,.72l-.26,.05c-.25,.04-.44,.09-.56,.16-.2,.1-.32,.27-.37,.49-.04,.2-.02,.34,.07,.42,.09,.09,.21,.13,.37,.13,.25,0,.49-.07,.73-.22,.24-.14,.4-.41,.5-.79l.09-.43c-.08,.04-.16,.08-.24,.11s-.19,.05-.32,.08Z"/><path class="cls-3" d="M371.6,68.51c.05-.23,.06-.41,.02-.53-.06-.23-.25-.34-.57-.34-.39,0-.69,.17-.91,.5-.11,.17-.2,.4-.25,.67l-.5,2.37h-1.14l.93-4.38h1.11l-.14,.64c.2-.23,.37-.39,.52-.49,.27-.18,.59-.27,.95-.27,.45,0,.8,.12,1.04,.36s.3,.63,.18,1.18l-.63,2.95h-1.17l.56-2.67Z"/><path class="cls-3" d="M376.51,66.86c.18,.12,.31,.28,.4,.49l.44-2.09h1.16l-1.25,5.92h-1.12l.13-.61c-.22,.26-.45,.45-.68,.57s-.51,.18-.82,.18c-.51,0-.9-.21-1.16-.62-.26-.42-.32-.95-.19-1.6,.16-.75,.46-1.34,.89-1.77,.44-.43,.94-.64,1.52-.64,.27,0,.49,.06,.67,.17Zm-.63,.83c-.34,0-.61,.13-.82,.38-.21,.25-.36,.57-.44,.94-.09,.4-.08,.73,.03,.97,.11,.24,.32,.36,.65,.36s.6-.12,.82-.36c.22-.24,.37-.55,.45-.94,.11-.54,.06-.92-.16-1.15-.14-.14-.32-.21-.54-.21Z"/><path class="cls-3" d="M336.39,76.78c.23-.13,.51-.2,.83-.2,.58,0,.98,.21,1.22,.62,.24,.42,.29,.95,.15,1.61-.14,.68-.43,1.25-.84,1.69-.42,.45-.91,.67-1.49,.67-.36,0-.64-.07-.83-.22-.11-.09-.22-.24-.33-.45l-.12,.55h-1.12l1.25-5.92h1.14l-.45,2.11c.19-.2,.38-.36,.58-.47Zm.52,3.09c.21-.24,.36-.55,.45-.94,.07-.31,.08-.57,.04-.77-.07-.39-.31-.58-.72-.58s-.74,.19-.98,.57c-.12,.2-.22,.46-.29,.78-.08,.38-.06,.69,.05,.93,.11,.25,.34,.37,.68,.37,.29,0,.55-.12,.76-.36Z"/><path class="cls-3" d="M341.87,80.44s-.05,.05-.1,.12c-.06,.07-.12,.13-.19,.18-.21,.16-.41,.27-.59,.33-.18,.06-.38,.09-.61,.09-.65,0-1.04-.23-1.16-.7-.07-.26-.05-.64,.06-1.14l.56-2.64h1.17l-.56,2.64c-.05,.25-.06,.44-.03,.56,.06,.22,.24,.33,.54,.33,.39,0,.69-.16,.91-.47,.11-.17,.2-.4,.26-.68l.51-2.39h1.16l-.93,4.38h-1.11l.13-.62Z"/><path class="cls-3" d="M344.91,76.68h1.16l-.93,4.38h-1.16l.93-4.38Zm.34-1.58h1.16l-.23,1.06h-1.16l.23-1.06Z"/><path class="cls-3" d="M346.28,81.06l1.26-5.93h1.15l-1.26,5.93h-1.15Z"/><path class="cls-3" d="M351.78,76.74c.18,.12,.31,.28,.4,.49l.44-2.09h1.16l-1.25,5.92h-1.12l.13-.61c-.22,.26-.45,.45-.68,.57s-.51,.18-.82,.18c-.51,0-.9-.21-1.16-.62-.26-.42-.32-.95-.19-1.6,.16-.75,.46-1.34,.89-1.77,.44-.43,.94-.64,1.52-.64,.27,0,.49,.06,.67,.17Zm-.63,.83c-.34,0-.61,.13-.82,.38-.21,.25-.36,.57-.44,.94-.09,.4-.08,.73,.03,.97,.11,.24,.32,.36,.65,.36s.6-.12,.82-.36c.22-.24,.37-.55,.45-.94,.11-.54,.06-.92-.16-1.15-.14-.14-.32-.21-.54-.21Z"/><path class="cls-3" d="M339.19,85.48c.29,.31,.36,.78,.23,1.42-.15,.7-.43,1.2-.85,1.49-.42,.29-.95,.43-1.61,.43h-1.26l-.45,2.13h-1.23l1.26-5.93h2.58c.6,0,1.04,.15,1.33,.46Zm-1.75,.57h-1.15l-.37,1.75h1.15c.29,0,.54-.07,.73-.21,.19-.14,.32-.37,.39-.68,.07-.31,.03-.53-.1-.66-.13-.13-.35-.2-.64-.2Z"/><path class="cls-3" d="M342.78,86.46s.04,0,.09,0l-.25,1.17c-.07,0-.13-.01-.19-.02-.06,0-.1,0-.14,0-.46,0-.8,.15-1.03,.45-.12,.17-.22,.43-.3,.78l-.44,2.1h-1.15l.93-4.38h1.09l-.16,.76c.24-.29,.43-.49,.59-.6,.25-.18,.55-.27,.9-.27h.06Z"/><path class="cls-3" d="M347.07,87.12c.27,.46,.34,1.01,.21,1.65-.14,.64-.44,1.19-.91,1.65s-1.08,.69-1.83,.69-1.27-.23-1.54-.69c-.27-.46-.34-1.01-.2-1.65,.13-.63,.44-1.18,.91-1.65,.47-.46,1.08-.7,1.83-.7s1.27,.23,1.54,.7Zm-1.75,.27c-.34,0-.62,.12-.85,.36-.23,.24-.39,.58-.49,1.02s-.08,.78,.05,1.02c.13,.24,.36,.36,.7,.36s.62-.12,.85-.36c.23-.24,.39-.58,.49-1.02s.08-.78-.05-1.02c-.13-.24-.36-.36-.7-.36Z"/><path class="cls-3" d="M349.18,89.74c-.04,.18-.04,.29,0,.34s.17,.07,.4,.07c.04,0,.07,0,.11,0s.08,0,.12,0l-.19,.86-.55,.02c-.54,.02-.89-.08-1.05-.28-.1-.13-.12-.33-.06-.61l.58-2.7h-.61l.17-.82h.61l.26-1.22h1.13l-.26,1.22h.71l-.17,.82h-.71l-.5,2.32Z"/><path class="cls-3" d="M354.84,87.12c.27,.46,.34,1.01,.21,1.65-.14,.64-.44,1.19-.91,1.65s-1.08,.69-1.83,.69-1.27-.23-1.54-.69c-.27-.46-.34-1.01-.2-1.65,.13-.63,.44-1.18,.91-1.65,.47-.46,1.08-.7,1.83-.7s1.27,.23,1.54,.7Zm-1.75,.27c-.34,0-.62,.12-.85,.36-.23,.24-.39,.58-.49,1.02s-.08,.78,.05,1.02c.13,.24,.36,.36,.7,.36s.62-.12,.85-.36c.23-.24,.39-.58,.49-1.02s.08-.78-.05-1.02c-.13-.24-.36-.36-.7-.36Z"/><path class="cls-3" d="M356.96,89.74c-.04,.18-.04,.29,0,.34s.17,.07,.4,.07c.04,0,.07,0,.11,0s.08,0,.12,0l-.19,.86-.55,.02c-.54,.02-.89-.08-1.05-.28-.1-.13-.12-.33-.06-.61l.58-2.7h-.61l.17-.82h.61l.26-1.22h1.13l-.26,1.22h.71l-.17,.82h-.71l-.5,2.32Z"/><path class="cls-3" d="M359.27,91.14l-.64-4.58h1.28l.27,3.23,1.59-3.23h1.22l-2.42,4.31c-.47,.83-.81,1.35-1.02,1.55-.21,.2-.57,.3-1.08,.3-.1,0-.18,0-.25,0-.06,0-.15,0-.27-.01l.19-.92h.14c.11,.01,.22,0,.32,0s.2-.04,.28-.09c.08-.05,.16-.14,.25-.29,.09-.15,.13-.23,.12-.27Z"/><path class="cls-3" d="M365.08,86.76c.29-.2,.62-.29,.97-.29,.51,0,.91,.19,1.18,.57,.27,.38,.33,.93,.18,1.67-.16,.77-.46,1.36-.9,1.77-.43,.4-.92,.61-1.47,.61-.35,0-.62-.09-.81-.26-.11-.1-.2-.24-.28-.42l-.49,2.29h-1.13l1.3-6.11h1.1l-.14,.65c.16-.19,.33-.34,.49-.45Zm.68,2.98c.22-.25,.37-.58,.46-.99,.07-.34,.06-.64-.04-.9-.1-.26-.32-.39-.67-.39-.42,0-.74,.2-.98,.59-.12,.21-.22,.47-.29,.8-.11,.51-.05,.87,.18,1.07,.14,.12,.32,.18,.54,.18,.32,0,.59-.12,.81-.37Z"/><path class="cls-3" d="M370.35,89.96c.09-.07,.19-.17,.28-.3h1.17c-.09,.26-.28,.52-.58,.79-.47,.43-1.04,.64-1.71,.64-.56,0-1.01-.18-1.36-.54-.35-.36-.44-.94-.27-1.75,.16-.76,.48-1.34,.95-1.75s1.01-.61,1.63-.61c.36,0,.68,.07,.94,.21,.26,.14,.46,.35,.58,.65,.12,.26,.17,.56,.14,.91-.01,.2-.06,.49-.14,.87h-3c-.08,.44,0,.75,.22,.93,.13,.11,.31,.17,.54,.17,.24,0,.44-.07,.62-.2Zm-.1-2.57c-.27,0-.49,.08-.67,.25-.18,.17-.32,.39-.42,.68h1.78c.05-.3,0-.53-.13-.69-.13-.16-.32-.24-.57-.24Z"/></g><text class="cls-12" transform="translate(172.98 238.99)"><tspan x="0" y="0">Evaluate </tspan><tspan x="0" y="9.89">Results</tspan></text><text class="cls-12" transform="translate(331.36 247.29)"><tspan x="0" y="0">Ad hoc test</tspan></text><circle class="cls-9" cx="50.9" cy="77.62" r="35.65"/><text class="cls-4" transform="translate(26.8 80.81)"><tspan x="0" y="0">Define Issue</tspan></text><text class="cls-8" transform="translate(8.3 129.42)"><tspan x="0" y="0">Looking closer at usability </tspan><tspan x="0" y="9.89">issues that can be solved </tspan><tspan x="0" y="19.77">by onboarding, what is the </tspan><tspan x="0" y="29.66">core problem? </tspan></text><text class="cls-8" transform="translate(177.84 129.42)"><tspan x="0" y="0">How can the problem be </tspan><tspan x="0" y="9.89">solved? Ideas are </tspan><tspan x="0" y="19.77">brainstormed and </tspan><tspan x="0" y="29.66">sketched</tspan></text><text class="cls-8" transform="translate(398.29 70.06)"><tspan x="0" y="0">A prototype is built based </tspan><tspan x="0" y="9.89">on the previous brainstorm </tspan><tspan x="0" y="19.77">and sketches</tspan></text><text class="cls-8" transform="translate(398.29 226.23)"><tspan x="0" y="0">Ad hoc testing lets us </tspan><tspan x="0" y="9.89">observe how well the </tspan><tspan x="0" y="19.77">implementation </tspan><tspan x="0" y="29.66">correponds to our </tspan><tspan x="0" y="39.55">expectation</tspan></text><text class="cls-8" transform="translate(157.7 291.08)"><tspan x="0" y="0">The observations are </tspan><tspan x="0" y="9.89">noted down and </tspan><tspan x="0" y="19.77">discussed in the group</tspan></text><g class="cls-13"><g><path class="cls-14" d="M399.1,112.72c.8,3.24,3.12,10.52,9.87,15.63,6.63,5.02,14.25,5.45,19.38,5.74,2.63,.15,4.95,.05,6.82-.12"/><polygon class="cls-7" points="430.55 140.29 429.47 139.25 434.59 133.92 428.9 129.2 429.86 128.04 436.79 133.79 430.55 140.29"/></g></g><g class="cls-13"><g><path class="cls-14" d="M99.38,80.83c1.98,2.56,6.91,8.12,14.91,10.01,7.87,1.86,14.81-.75,19.48-2.51,2.38-.89,4.38-1.88,5.97-2.76"/><polygon class="cls-7" points="138.06 93.22 136.65 92.71 139.19 85.76 132.08 83.73 132.49 82.29 141.15 84.76 138.06 93.22"/></g></g><circle class="cls-2" cx="481.02" cy="151.81" r="35.65"/><text class="cls-4" transform="translate(457.92 153.05)"><tspan x="0" y="0">User </tspan><tspan class="cls-11" x="20.61" y="0">T</tspan><tspan x="25.04" y="0">esting</tspan></text><g class="cls-13"><g><path class="cls-14" d="M161.54,187.63c-3.19-3.24-10.07-11.08-12.03-22.08-1.93-10.8,1.85-19.29,4.39-25,1.37-3.07,2.84-5.57,4.12-7.49"/><polygon class="cls-7" points="160.62 140.58 159.14 140.86 157.78 133.59 150.63 135.48 150.25 134.03 158.96 131.73 160.62 140.58"/></g></g><text class="cls-8" transform="translate(524.13 140.44)"><tspan x="0" y="0">The final implementations </tspan><tspan x="0" y="9.89">get finalized for the </tspan><tspan x="0" y="19.77">second big evaluation</tspan></text></svg>